<svg width="32" height="32" viewBox="0 0 32 32" fill="none" xmlns="http://www.w3.org/2000/svg">
<path d="M29.6066 12.5467V19.3867C29.62 19.8961 29.4906 20.4001 29.2333 20.8401C28.9529 21.2813 28.5561 21.6366 28.0866 21.8667C27.714 22.0525 27.303 22.1484 26.8866 22.1467H26.5533C26.0657 22.078 25.6053 21.88 25.22 21.5734L21.8466 18.9067V20.1201C21.8466 21.6548 21.237 23.1266 20.1518 24.2119C19.0666 25.2971 17.5947 25.9067 16.06 25.9067H8.17997C6.64581 25.9032 5.17495 25.2947 4.08664 24.2134C3.54701 23.6775 3.11939 23.0396 2.82868 22.3369C2.53796 21.6341 2.38997 20.8806 2.3933 20.1201V11.8934C2.39189 11.1338 2.54146 10.3814 2.8333 9.68006C3.42267 8.25951 4.5486 7.12878 5.96664 6.53339C6.66798 6.24155 7.42033 6.09198 8.17997 6.09339H15.9C16.6638 6.09372 17.4201 6.24318 18.1266 6.53339C19.5447 7.12878 20.6706 8.25951 21.26 9.68006C21.5533 10.3854 21.7 11.1427 21.6866 11.9067V13.1067L25.06 10.4401C25.3669 10.1989 25.7212 10.0249 26.0997 9.92933C26.4782 9.83379 26.8726 9.81885 27.2572 9.88547C27.6419 9.95209 28.0083 10.0988 28.3326 10.3161C28.6569 10.5333 28.932 10.8163 29.14 11.1467C29.416 11.5641 29.5773 12.0467 29.6066 12.5467Z" fill="#4463FB"/>
</svg>
