<svg width="40" height="40" viewBox="0 0 40 40" fill="none" xmlns="http://www.w3.org/2000/svg">
<path d="M11.6667 25C13.0556 25 14.2361 24.5139 15.2083 23.5417C16.1806 22.5694 16.6667 21.3889 16.6667 20C16.6667 18.6111 16.1806 17.4306 15.2083 16.4583C14.2361 15.4861 13.0556 15 11.6667 15C10.2778 15 9.09722 15.4861 8.125 16.4583C7.15278 17.4306 6.66667 18.6111 6.66667 20C6.66667 21.3889 7.15278 22.5694 8.125 23.5417C9.09722 24.5139 10.2778 25 11.6667 25ZM11.6667 30C8.88889 30 6.52778 29.0278 4.58333 27.0833C2.63889 25.1389 1.66667 22.7778 1.66667 20C1.66667 17.2222 2.63889 14.8611 4.58333 12.9167C6.52778 10.9722 8.88889 10 11.6667 10C13.9167 10 15.8822 10.6389 17.5633 11.9167C19.2444 13.1944 20.4178 14.7778 21.0833 16.6667H35.0417L38.3333 19.9583L32.5 26.625L28.3333 23.3333L25 26.6667L21.6667 23.3333H21.0833C20.3889 25.3333 19.1806 26.9444 17.4583 28.1667C15.7361 29.3889 13.8056 30 11.6667 30Z" fill="#4463FB"/>
</svg>
