<svg width="26" height="28" viewBox="0 0 26 28" fill="none" xmlns="http://www.w3.org/2000/svg">
<g clip-path="url(#clip0_33_29)">
<path d="M0 24.5C0 26.4305 1.94323 28 4.33333 28H15.1667V21C15.1667 20.032 16.1349 19.25 17.3333 19.25H26V3.5C26 1.56953 24.0568 0 21.6667 0H4.33333C1.94323 0 0 1.56953 0 3.5V24.5ZM11.5984 4.11797L5.09844 9.36797C4.67865 9.70703 3.98802 9.70703 3.56823 9.36797C3.14844 9.02891 3.14844 8.47109 3.56823 8.13203L10.0682 2.88203C10.488 2.54297 11.1786 2.54297 11.5984 2.88203C12.0182 3.22109 12.0182 3.77891 11.5984 4.11797ZM18.0984 5.86797L7.2651 14.618C6.84531 14.957 6.15469 14.957 5.7349 14.618C5.3151 14.2789 5.3151 13.7211 5.7349 13.382L16.5682 4.63203C16.988 4.29297 17.6786 4.29297 18.0984 4.63203C18.5182 4.97109 18.5182 5.52891 18.0984 5.86797ZM26 21H17.3333V28L26 21Z" fill="#4463FB"/>
</g>
<defs>
<clipPath id="clip0_33_29">
<rect width="26" height="28" fill="white"/>
</clipPath>
</defs>
</svg>
